name rise30.8019peak61.5557fall86.2505.mot
datacolumns 19
datarows 27
range 2.73666100000000 2.77999000000000
endheader
time	ground_force1_vx	ground_force1_vy	ground_force1_vz	ground_force1_px	ground_force1_py	ground_force1_pz	ground_force2_vx	ground_force2_vy	ground_force2_vz	ground_force2_px	ground_force2_py	ground_force2_pz	ground_torque1_x	ground_torque1_y	ground_torque1_z	ground_torque2_x	ground_torque2_y	ground_torque2_z	
2.73666100000000	-5.26498500000000	690.10080700000003	31.18394300000000	0.12715600000000	0.00000000000000	0.10622200000000	0.00000000000000	0.00000000000000	0.00000000000000	0.00000000000000	0.00000000000000	0.00000000000000	0.00000000000000	11.66564700000000	0.00000000000000	0.00000000000000	0.00000000000000	0.00000000000000	
2.73832800000000	-5.75945300000000	690.69922099999997	31.17574000000000	0.12607300000000	0.00000000000000	0.10623100000000	0.00000000000000	0.00000000000000	0.00000000000000	0.00000000000000	0.00000000000000	0.00000000000000	0.00000000000000	11.74435600000000	0.00000000000000	0.00000000000000	0.00000000000000	0.00000000000000	
2.73999400000000	-6.25586800000000	691.31243900000004	31.16885700000000	0.12500000000000	0.00000000000000	0.10624000000000	0.00000000000000	0.00000000000000	0.00000000000000	0.00000000000000	0.00000000000000	0.00000000000000	0.00000000000000	11.82475200000000	0.00000000000000	0.00000000000000	0.00000000000000	0.00000000000000	
2.74166300000000	-6.75414000000000	691.94101999999998	31.16353300000000	0.12393600000000	0.00000000000000	0.10624900000000	0.00000000000000	0.00000000000000	0.00000000000000	0.00000000000000	0.00000000000000	0.00000000000000	0.00000000000000	11.90686900000000	0.00000000000000	0.00000000000000	0.00000000000000	0.00000000000000	
2.74333100000000	-7.25418600000000	692.58554200000003	31.16001400000000	0.12288200000000	0.00000000000000	0.10625700000000	0.00000000000000	0.00000000000000	0.00000000000000	0.00000000000000	0.00000000000000	0.00000000000000	0.00000000000000	11.99073900000000	0.00000000000000	0.00000000000000	0.00000000000000	0.00000000000000	
2.74499100000000	-7.75592800000000	693.24659799999995	31.15855500000000	0.12183800000000	0.00000000000000	0.10626400000000	0.00000000000000	0.00000000000000	0.00000000000000	0.00000000000000	0.00000000000000	0.00000000000000	0.00000000000000	12.07639100000000	0.00000000000000	0.00000000000000	0.00000000000000	0.00000000000000	
2.74666100000000	-8.25930000000000	693.92479200000002	31.15941600000000	0.12080400000000	0.00000000000000	0.10627100000000	0.00000000000000	0.00000000000000	0.00000000000000	0.00000000000000	0.00000000000000	0.00000000000000	0.00000000000000	12.16385200000000	0.00000000000000	0.00000000000000	0.00000000000000	0.00000000000000	
2.74832300000000	-8.76423800000000	694.62073399999997	31.16286300000000	0.11978100000000	0.00000000000000	0.10627800000000	0.00000000000000	0.00000000000000	0.00000000000000	0.00000000000000	0.00000000000000	0.00000000000000	0.00000000000000	12.25314400000000	0.00000000000000	0.00000000000000	0.00000000000000	0.00000000000000	
2.74999000000000	-9.27069000000000	695.33504500000004	31.16916400000000	0.11876700000000	0.00000000000000	0.10628500000000	0.00000000000000	0.00000000000000	0.00000000000000	0.00000000000000	0.00000000000000	0.00000000000000	0.00000000000000	12.34428500000000	0.00000000000000	0.00000000000000	0.00000000000000	0.00000000000000	
2.75167000000000	-9.77860700000000	696.06834300000003	31.17859100000000	0.11776300000000	0.00000000000000	0.10629100000000	0.00000000000000	0.00000000000000	0.00000000000000	0.00000000000000	0.00000000000000	0.00000000000000	0.00000000000000	12.43729000000000	0.00000000000000	0.00000000000000	0.00000000000000	0.00000000000000	
2.75333400000000	-10.28795100000000	696.82124899999997	31.19141600000000	0.11676900000000	0.00000000000000	0.10629700000000	0.00000000000000	0.00000000000000	0.00000000000000	0.00000000000000	0.00000000000000	0.00000000000000	0.00000000000000	12.53216800000000	0.00000000000000	0.00000000000000	0.00000000000000	0.00000000000000	
2.75499700000000	-10.79868600000000	697.59437900000000	31.20791200000000	0.11578400000000	0.00000000000000	0.10630200000000	0.00000000000000	0.00000000000000	0.00000000000000	0.00000000000000	0.00000000000000	0.00000000000000	0.00000000000000	12.62892500000000	0.00000000000000	0.00000000000000	0.00000000000000	0.00000000000000	
2.75665900000000	-11.31078500000000	698.38834299999996	31.22835300000000	0.11480900000000	0.00000000000000	0.10630800000000	0.00000000000000	0.00000000000000	0.00000000000000	0.00000000000000	0.00000000000000	0.00000000000000	0.00000000000000	12.72755900000000	0.00000000000000	0.00000000000000	0.00000000000000	0.00000000000000	
2.75832600000000	-11.82422400000000	699.20374100000004	31.25300800000000	0.11384200000000	0.00000000000000	0.10631400000000	0.00000000000000	0.00000000000000	0.00000000000000	0.00000000000000	0.00000000000000	0.00000000000000	0.00000000000000	12.82806400000000	0.00000000000000	0.00000000000000	0.00000000000000	0.00000000000000	
2.75999300000000	-12.33898400000000	700.04115899999999	31.28214400000000	0.11288500000000	0.00000000000000	0.10631900000000	0.00000000000000	0.00000000000000	0.00000000000000	0.00000000000000	0.00000000000000	0.00000000000000	0.00000000000000	12.93042700000000	0.00000000000000	0.00000000000000	0.00000000000000	0.00000000000000	
2.76166100000000	-12.85505100000000	700.90116599999999	31.31602600000000	0.11193500000000	0.00000000000000	0.10632500000000	0.00000000000000	0.00000000000000	0.00000000000000	0.00000000000000	0.00000000000000	0.00000000000000	0.00000000000000	13.03463200000000	0.00000000000000	0.00000000000000	0.00000000000000	0.00000000000000	
2.76332800000000	-13.37241200000000	701.78431300000000	31.35491100000000	0.11099400000000	0.00000000000000	0.10633100000000	0.00000000000000	0.00000000000000	0.00000000000000	0.00000000000000	0.00000000000000	0.00000000000000	0.00000000000000	13.14065300000000	0.00000000000000	0.00000000000000	0.00000000000000	0.00000000000000	
2.76499700000000	-13.89105600000000	702.69112700000005	31.39905200000000	0.11006000000000	0.00000000000000	0.10633700000000	0.00000000000000	0.00000000000000	0.00000000000000	0.00000000000000	0.00000000000000	0.00000000000000	0.00000000000000	13.24845800000000	0.00000000000000	0.00000000000000	0.00000000000000	0.00000000000000	
2.76667200000000	-14.41097600000000	703.62210900000002	31.44869400000000	0.10913300000000	0.00000000000000	0.10634300000000	0.00000000000000	0.00000000000000	0.00000000000000	0.00000000000000	0.00000000000000	0.00000000000000	0.00000000000000	13.35801100000000	0.00000000000000	0.00000000000000	0.00000000000000	0.00000000000000	
2.76833500000000	-14.93216100000000	704.57772999999997	31.50407400000000	0.10821300000000	0.00000000000000	0.10634900000000	0.00000000000000	0.00000000000000	0.00000000000000	0.00000000000000	0.00000000000000	0.00000000000000	0.00000000000000	13.46926600000000	0.00000000000000	0.00000000000000	0.00000000000000	0.00000000000000	
2.76999400000000	-15.45460100000000	705.55842900000005	31.56542000000000	0.10729900000000	0.00000000000000	0.10635600000000	0.00000000000000	0.00000000000000	0.00000000000000	0.00000000000000	0.00000000000000	0.00000000000000	0.00000000000000	13.58217200000000	0.00000000000000	0.00000000000000	0.00000000000000	0.00000000000000	
2.77166400000000	-15.97828500000000	706.56460800000002	31.63295100000000	0.10639100000000	0.00000000000000	0.10636400000000	0.00000000000000	0.00000000000000	0.00000000000000	0.00000000000000	0.00000000000000	0.00000000000000	0.00000000000000	13.69667000000000	0.00000000000000	0.00000000000000	0.00000000000000	0.00000000000000	
2.77333000000000	-16.50319700000000	707.59663100000000	31.70687400000000	0.10548900000000	0.00000000000000	0.10637200000000	0.00000000000000	0.00000000000000	0.00000000000000	0.00000000000000	0.00000000000000	0.00000000000000	0.00000000000000	13.81269300000000	0.00000000000000	0.00000000000000	0.00000000000000	0.00000000000000	
2.77499300000000	-17.02931700000000	708.65481899999997	31.78738600000000	0.10459100000000	0.00000000000000	0.10638000000000	0.00000000000000	0.00000000000000	0.00000000000000	0.00000000000000	0.00000000000000	0.00000000000000	0.00000000000000	13.93016900000000	0.00000000000000	0.00000000000000	0.00000000000000	0.00000000000000	
2.77665900000000	-17.55662200000000	709.73944800000004	31.87467000000000	0.10369800000000	0.00000000000000	0.10639000000000	0.00000000000000	0.00000000000000	0.00000000000000	0.00000000000000	0.00000000000000	0.00000000000000	0.00000000000000	14.04901600000000	0.00000000000000	0.00000000000000	0.00000000000000	0.00000000000000	
2.77832700000000	-18.08507900000000	710.85074599999996	31.96889700000000	0.10280800000000	0.00000000000000	0.10639900000000	0.00000000000000	0.00000000000000	0.00000000000000	0.00000000000000	0.00000000000000	0.00000000000000	0.00000000000000	14.16914800000000	0.00000000000000	0.00000000000000	0.00000000000000	0.00000000000000	
2.77999000000000	-18.61465100000000	711.98888999999997	32.07022400000000	0.10192300000000	0.00000000000000	0.10641000000000	0.00000000000000	0.00000000000000	0.00000000000000	0.00000000000000	0.00000000000000	0.00000000000000	0.00000000000000	14.29047000000000	0.00000000000000	0.00000000000000	0.00000000000000	0.00000000000000	
